<svg width="409" height="457" viewBox="0 0 409 457" fill="none" xmlns="http://www.w3.org/2000/svg">
  <g clip-path="url(#clip0_215_1246)">
    <path d="M107.209 428.353L106.223 440.194L102.043 447.917L88.8906 443.543L87.0371 434.756L87.7864 421.102L107.209 428.353Z" fill="#232323"/>
    <path d="M53.5552 448.469C58.0905 446.341 72.13 442.263 82.5611 434.776C83.7047 433.948 85.085 433.653 86.3667 433.889L87.0766 434.027C87.0766 434.027 87.4907 440.371 94.1752 442.618C98.671 444.135 106.223 440.194 106.223 440.194L105.336 457H51.1693C50.1439 456.429 49.9468 455.267 49.9468 455.267C49.9468 455.267 47.758 451.188 53.5355 448.489L53.5552 448.469Z" fill="black"/>
    <path d="M128.978 309.763L116.437 434.697C116.437 434.697 95.9697 437.909 82.1667 432.569L90.8429 306.434L128.978 309.763Z" fill="black"/>
    <path d="M90.8429 306.414C89.9161 316.935 97.7049 326.215 108.235 327.141C118.764 328.067 128.052 320.284 128.978 309.763C129.905 299.242 122.116 289.962 111.587 289.036C101.057 288.11 91.7697 295.893 90.8429 306.414Z" fill="#302624"/>
    <path d="M307.036 102.059H195.252L189.06 268.329C190.5 288.031 174.903 304.818 155.125 304.818H266.909C286.686 304.818 302.284 288.031 300.844 268.329L307.036 102.059Z" fill="#444444"/>
    <path d="M310.132 102.059H307.036L300.844 268.329C302.284 288.031 286.686 304.818 266.909 304.818H129.254V307.911H266.909C277.182 307.911 287.101 303.596 294.101 296.07C301.101 288.543 304.67 278.357 303.92 268.112L310.132 102.079V102.059Z" fill="#444444"/>
    <path d="M264.385 304.798H129.254V307.891H264.385V304.798Z" fill="#2B2B2B"/>
    <path d="M294.101 296.05C291.34 299.025 288.106 301.468 284.577 303.379L298.951 457H303.605L294.219 295.912C294.219 295.912 294.14 296.011 294.101 296.05Z" fill="#444444"/>
    <path d="M236.74 307.891L220.985 457H225.618L246.717 307.891H236.74Z" fill="#444444"/>
    <path d="M140.376 307.891L124.601 457H129.254L150.353 307.891H140.376Z" fill="#444444"/>
    <path d="M105.198 289.43C94.9639 292.031 88.7723 302.453 91.3752 312.679C93.978 322.905 104.409 329.091 114.643 326.491C124.877 323.89 131.068 313.467 128.466 303.242C125.863 293.016 115.432 286.829 105.198 289.43Z" fill="black"/>
    <path d="M194.759 255.739C182.672 258.812 175.376 271.107 178.452 283.184C181.528 295.262 193.832 302.552 205.92 299.478C218.007 296.405 225.303 284.11 222.227 272.033C219.151 259.955 206.846 252.665 194.759 255.739Z" fill="#302624"/>
    <path d="M105.198 289.43L194.759 255.739L205.92 299.478L114.643 326.491L105.198 289.43Z" fill="black"/>
    <path d="M192.196 255.049H215.03C215.03 255.049 215.168 255.049 215.227 255.049H262.058C262.058 255.049 262.117 255.049 262.157 255.049C262.196 255.049 262.216 255.049 262.255 255.049H284.754V277.766C284.675 290.159 274.599 300.188 262.177 300.188H214.892C214.024 300.188 213.176 300.148 212.289 300.03C200.832 298.71 192.373 289.016 192.314 277.766H192.216V255.049H192.196Z" fill="#302624"/>
    <path d="M192.196 255.049H215.03C215.03 255.049 215.168 255.049 215.227 255.049H262.058C262.058 255.049 262.117 255.049 262.157 255.049C262.196 255.049 262.216 255.049 262.255 255.049H284.754V277.766C284.675 290.159 274.599 300.188 262.177 300.188H214.892C214.024 300.188 213.176 300.148 212.289 300.03C200.832 298.71 192.373 289.016 192.314 277.766H192.216V255.049H192.196Z" fill="#302624"/>
    <path d="M189.849 428.353L191.9 440.194L189.711 447.917L175.435 443.543L171.314 434.756L168.553 421.102L189.849 428.353Z" fill="#232323"/>
    <path d="M139.39 448.469C143.373 446.341 158.339 442.263 166.838 434.776C167.784 433.948 169.086 433.653 170.426 433.889L171.176 434.027C171.176 434.027 173.226 440.371 180.483 442.618C185.373 444.135 191.9 440.194 191.9 440.194L195.331 457H139.212C138.029 456.429 137.536 455.267 137.536 455.267C137.536 455.267 134.302 451.188 139.39 448.489V448.469Z" fill="black"/>
    <path d="M180.779 305.271L192.965 430.717C192.965 430.717 177.663 437.692 162.993 435.702L142.939 310.906L180.798 305.271H180.779Z" fill="black"/>
    <path d="M142.919 310.906C144.477 321.348 154.218 328.56 164.669 327.003C175.119 325.447 182.336 315.713 180.779 305.271C179.221 294.829 169.48 287.618 159.029 289.174C148.578 290.731 141.361 300.464 142.919 310.906Z" fill="#302624"/>
    <path d="M157.117 289.43C146.883 292.031 140.691 302.453 143.294 312.679C145.897 322.905 156.328 329.091 166.562 326.491C176.796 323.89 182.987 313.467 180.384 303.242C177.781 293.016 167.35 286.829 157.117 289.43Z" fill="black"/>
    <path d="M256.557 255.739C244.469 258.812 237.173 271.107 240.25 283.184C243.326 295.262 255.63 302.552 267.717 299.478C279.805 296.405 287.101 284.11 284.024 272.033C280.948 259.955 268.644 252.665 256.557 255.739Z" fill="black"/>
    <path d="M157.116 289.43L256.557 255.739L267.697 299.478L166.562 326.491L157.116 289.43Z" fill="black"/>
    <path d="M184.649 162.091C192.945 160.03 197.999 151.64 195.937 143.35C193.874 135.06 185.477 130.011 177.18 132.072C168.884 134.132 163.831 142.523 165.893 150.812C167.955 159.102 176.353 164.152 184.649 162.091Z" fill="#FBC0A4"/>
    <path d="M283.546 166.097C291.94 164.479 297.432 156.368 295.813 147.98C294.193 139.593 286.076 134.106 277.682 135.724C269.288 137.342 263.796 145.453 265.415 153.84C267.035 162.227 275.152 167.715 283.546 166.097Z" fill="#FBC0A4"/>
    <path d="M180.917 164.516C190.539 164.516 198.367 156.694 198.367 147.079C198.367 137.464 190.539 129.643 180.917 129.643C171.294 129.643 163.466 137.464 163.466 147.079C163.466 156.694 171.294 164.516 180.917 164.516Z" fill="#3E3533"/>
    <path d="M187.522 222.796L187.641 220.944C187.976 215.624 192.353 176.633 197.835 151.355L198.229 149.522L164.669 140.715L164.156 142.252C161.139 157.226 157.471 218.501 157.471 220.806V222.776H187.542L187.522 222.796Z" fill="#3E3533"/>
    <path d="M172.556 235.898C179.418 235.898 185.413 231.248 187.148 224.609C189.238 216.57 184.387 208.315 176.342 206.206C175.1 205.891 173.818 205.714 172.536 205.714C165.674 205.714 159.66 210.344 157.945 217.003C155.855 225.042 160.686 233.297 168.75 235.406C169.993 235.741 171.294 235.898 172.556 235.898Z" fill="#3E3533"/>
    <path d="M180.917 164.516C187.089 164.516 192.669 161.364 195.863 156.103C200.852 147.867 198.19 137.13 189.968 132.164C187.246 130.509 184.131 129.643 180.956 129.643C174.784 129.643 169.204 132.795 166.01 138.056C163.604 142.035 162.874 146.725 163.998 151.256C165.122 155.788 167.922 159.59 171.905 162.014C174.627 163.669 177.742 164.536 180.917 164.536V164.516Z" fill="#3E3533"/>
    <path d="M287.196 167.012C296.124 163.384 300.418 153.212 296.788 144.291C293.157 135.371 282.976 131.08 274.049 134.708C265.121 138.336 260.827 148.508 264.457 157.429C268.088 166.349 278.268 170.64 287.196 167.012Z" fill="#F8E8D8"/>
    <path d="M284.715 255.049L284.458 200.276L279.568 160.713L295.008 141.858L294.751 140.893C293.016 134.352 247.427 114.156 231.79 111.674C231.061 111.556 230.213 111.497 229.286 111.497C215.759 111.497 179.852 124.303 168.928 134.43L167.311 136.184L180.897 146.587C181.686 205.753 175.948 263.147 175.948 263.147C175.948 263.147 283.709 255.443 284.715 255.069V255.049Z" fill="black"/>
    <path d="M212.052 114.728C212.052 114.728 204.342 114.393 202.942 115.26C201.542 116.127 198.032 126.254 197.323 127.85C196.613 129.445 206.709 138.863 206.709 138.863C206.709 138.863 198.387 152.517 198.742 153.62C199.097 154.724 213.847 214.383 213.847 214.383C213.847 214.383 249.616 161.068 250.346 158.408C251.075 155.768 246.915 142.035 246.915 142.035C246.915 142.035 257.503 134.233 258.154 132.539C258.805 130.844 260.146 119.969 258.154 118.589C256.931 117.742 249.813 116.146 249.813 116.146L212.072 114.728H212.052Z" fill="#232323"/>
    <path d="M246.066 120.717L213.669 209.536L209.824 120.717H246.066Z" fill="white"/>
    <path d="M231.1 136.46L224.061 142.035L225.342 177.559L213.669 209.536L212.387 179.588L217.278 141.503L213.709 134.154L221.833 129.643L231.1 136.46Z" fill="#EE323E"/>
    <path d="M242.162 117.998L246.047 80.2681L217.258 94.907L217.534 96.2862L218.342 115.26C218.579 120.678 218.342 126.175 224.061 127.081C230.883 128.185 241.511 124.244 242.162 117.979V117.998Z" fill="#FBC0A4"/>
    <path d="M218.047 108.068L217.554 96.2862L217.278 94.907L246.067 80.2681L244.233 98.0594C239.086 105.783 228.931 108.088 218.066 108.049L218.047 108.068Z" fill="#F69D7D"/>
    <path d="M198.092 64.6636C198.23 55.6793 197.677 42.7544 201.266 33.3366C201.266 33.3366 201.266 33.3366 201.266 33.3169C201.266 33.3169 201.266 33.3169 201.266 33.2972C202.863 29.1597 205.249 25.7314 208.858 23.6035C212.801 20.7664 218.303 18.9341 226.545 18.2642C243.878 16.885 255.137 23.3671 262.669 34.637C268.289 43.0302 265.884 54.0636 264.74 58.0436C267.934 58.3391 272.391 60.2699 271.385 69.0376C269.827 82.4353 260.126 82.6914 257.267 83.2825C257.267 83.2825 251.923 107.142 222.483 104.857C193.024 102.571 197.855 79.7951 198.072 64.6833L198.092 64.6636Z" fill="#FBC0A4"/>
    <path d="M218.362 74.9681C219.072 74.6332 219.94 74.9484 220.728 75.2834C221.478 75.6774 222.286 76.17 222.464 76.9187C222.523 77.293 222.286 77.7068 221.714 77.9432C221.162 78.1796 220.314 78.1796 219.526 77.8053C218.737 77.4309 218.204 76.761 218.047 76.1897C217.869 75.5986 218.047 75.1651 218.362 74.9681Z" fill="#F69D7D"/>
    <path d="M237.962 63.8559C238.061 65.9838 236.424 67.7767 234.295 67.8752C232.165 67.9737 230.371 66.3384 230.272 64.2106C230.173 62.0827 231.81 60.2898 233.94 60.1912C236.069 60.0927 237.864 61.728 237.962 63.8559Z" fill="#403433"/>
    <path d="M217.514 63.8559C217.613 65.9838 215.976 67.7767 213.847 67.8752C211.717 67.9737 209.923 66.3384 209.824 64.2106C209.725 62.0827 211.362 60.2898 213.492 60.1912C215.621 60.0927 217.416 61.728 217.514 63.8559Z" fill="#403433"/>
    <path d="M198.742 76.7412C198.565 80.7408 201.661 84.1297 205.664 84.307C209.666 84.4843 213.058 81.391 213.235 77.3914C213.413 73.3918 210.317 70.0029 206.314 69.8256C202.311 69.6483 198.92 72.7416 198.742 76.7412Z" fill="#F9B092"/>
    <path d="M235.537 77.7856C235.359 81.7852 238.455 85.1741 242.458 85.3514C246.461 85.5287 249.852 82.4354 250.03 78.4358C250.207 74.4362 247.112 71.0474 243.109 70.8701C239.106 70.6927 235.714 73.786 235.537 77.7856Z" fill="#F9B092"/>
    <path d="M267.599 64.1714C268.625 67.7179 267.165 71.4614 265.746 74.8502C265.312 75.855 264.858 76.919 263.951 77.5495C263.044 78.1602 261.565 78.0814 261.092 77.0766C260.639 76.1112 261.309 75.0472 261.841 74.1212C262.374 73.1952 262.67 71.816 261.782 71.2446C261.368 70.9688 260.816 71.0082 260.382 70.7718C259.436 70.2792 259.436 68.9198 259.692 67.8755C260.027 66.4372 260.56 65.0384 261.289 63.7183C261.999 62.4376 263.103 61.1373 264.563 61.157C266.081 61.1767 267.185 62.6741 267.619 64.1517L267.599 64.1714Z" fill="#F9B092"/>
    <path d="M217.948 83.4992C218.323 82.8293 221.281 83.9327 224.495 82.8687C227.728 81.8836 229.503 79.2829 230.213 79.5981C230.548 79.736 230.568 80.7014 229.838 82.0018C229.128 83.2825 227.59 84.8193 225.343 85.5286C223.114 86.2378 220.945 85.8832 219.644 85.2527C218.303 84.6222 217.771 83.8341 217.948 83.5189V83.4992Z" fill="#F69D7D"/>
    <path d="M242.793 111.911C242.793 111.911 228.143 128.165 224.061 127.082C219.979 125.998 218.185 111.635 218.185 111.635C218.185 111.635 209.272 113.546 208.266 115.299C207.261 117.053 206.728 134.135 209.706 137.248C212.683 140.381 222.464 131.593 222.464 131.593C222.464 131.593 230.844 142.45 235.517 141.405C240.19 140.361 250.898 119.673 251.588 117.211C252.278 114.748 242.774 111.891 242.774 111.891L242.793 111.911Z" fill="white"/>
    <path d="M240.25 55.3642C237.627 57.5315 225.973 55.5809 227.314 51.7389C228.635 47.8969 244.745 51.6601 240.25 55.3642Z" fill="#232323"/>
    <path d="M218.914 53.4729C217.021 56.2904 205.289 57.709 205.466 53.67C205.644 49.6112 222.168 48.6458 218.914 53.4729Z" fill="#232323"/>
    <path d="M188.37 17.0034C193.872 1.30046 211.638 -4.33446 226.151 3.50714C242.064 12.1171 263.064 3.34952 263.084 3.32982C262.196 5.57591 259.16 9.31939 258.509 10.5409C270.222 13.6539 271.562 20.3725 271.562 20.3725C284.695 19.9785 272.943 29.9676 272.943 29.9676C279.213 35.9572 266.574 58.3787 266.574 58.3787C258.036 56.172 255.571 71.9143 255.571 71.9143L251.647 70.8504V62.1813C244.351 57.2753 247.703 43.188 247.703 43.188C247.23 44.0352 242.872 43.5821 242.162 43.5033C238.14 43.0698 235.438 39.3066 231.514 38.6367C226.979 37.8683 222.68 41.0601 218.5 42.2817C213.689 43.6806 208.385 44.0549 203.475 42.9319C191.762 40.272 184.308 28.6082 188.37 16.9837V17.0034Z" fill="#232323"/>
    <path d="M225.303 236.746C221.675 237.75 219.545 241.494 220.551 245.119C221.557 248.744 225.303 250.872 228.931 249.867C232.559 248.863 234.689 245.119 233.683 241.494C232.678 237.869 228.931 235.741 225.303 236.746Z" fill="#FBC0A4"/>
    <path d="M225.303 236.746C225.342 237.061 221.635 235.524 221.379 235.347C220.097 234.519 219.092 233.278 217.711 232.667C215.345 231.603 212.861 230.795 210.337 230.263C208.109 229.81 205.959 229.357 204.323 231.327C203.81 231.958 203.435 232.687 202.883 233.278C201.917 234.303 200.517 234.775 199.137 235.032C197.756 235.288 196.337 235.327 194.976 235.682C192.511 236.332 190.342 237.987 188.883 240.075C187.404 242.164 186.596 244.666 186.28 247.208C186.103 248.607 186.872 249.454 188.134 249.867C191.9 251.128 195.824 251.917 199.768 252.37C203.179 252.764 206.787 252.33 210.238 252.094C215.976 251.68 221.911 252.35 221.911 252.35L225.342 236.746H225.303Z" fill="#FBC0A4"/>
    <path d="M279.844 234.894C281.087 236.155 282.526 237.179 284.143 237.948C287.791 239.681 291.892 239.878 295.678 238.539C299.484 237.179 302.521 234.441 304.256 230.796C306.957 225.102 305.814 218.245 301.397 213.753C300.154 212.492 298.715 211.467 297.098 210.699C293.45 208.965 289.349 208.768 285.563 210.108C281.757 211.467 278.72 214.206 276.985 217.851C274.284 223.545 275.427 230.402 279.844 234.894Z" fill="#3E3533"/>
    <path d="M228.616 251.365L221.872 252.35L220.452 233.613L227.196 233.692L228.616 251.365Z" fill="white"/>
    <path d="M228.024 253.572C239.658 253.158 292.129 239.406 294.515 238.894L297.552 237.711L288.481 209.241L286.568 209.793C286.214 209.891 277.597 212.394 263.399 218.758C259.811 220.373 223.785 230.815 223.785 230.815L226.21 253.69L228.024 253.572Z" fill="black"/>
    <path d="M274.816 167.393C276.748 168.043 278.779 168.358 280.85 168.299C285.503 168.181 289.841 166.27 293.056 162.881C296.27 159.512 297.965 155.079 297.847 150.429C297.67 143.139 292.898 136.677 285.996 134.352C284.064 133.702 282.033 133.386 279.963 133.445C270.34 133.682 262.709 141.701 262.946 151.316C263.123 158.606 267.895 165.068 274.796 167.393H274.816Z" fill="black"/>
    <path d="M305.557 226.678L305.735 224.018C305.675 221.713 304.118 167.196 297.078 145.661L296.487 143.829L263.202 153.778L263.636 155.591C269.729 180.692 275.112 219.565 275.565 224.885L275.723 226.737L305.557 226.678Z" fill="black"/>
    <path d="M285.779 238.677C290.985 240.43 296.723 239.228 300.785 235.544C306.937 229.949 307.391 220.393 301.791 214.246C300.075 212.354 297.887 210.916 295.461 210.108C290.256 208.355 284.518 209.556 280.456 213.241C277.478 215.96 275.723 219.664 275.526 223.683C275.329 227.702 276.729 231.564 279.43 234.539C281.146 236.431 283.334 237.869 285.74 238.677H285.779Z" fill="black"/>
    <path d="M107.426 235.859C103.837 237.002 101.866 240.824 103.029 244.41C104.173 247.996 107.998 249.966 111.587 248.803C115.176 247.661 117.147 243.838 115.984 240.252C114.84 236.667 111.015 234.696 107.426 235.859Z" fill="#FBC0A4"/>
    <path d="M107.426 235.859C107.485 236.174 103.719 234.795 103.443 234.637C102.142 233.849 101.057 232.667 99.6768 232.096C97.2711 231.13 94.7669 230.421 92.2035 230.007C89.9556 229.653 87.7866 229.278 86.2288 231.308C85.7358 231.958 85.4006 232.706 84.8682 233.298C83.9415 234.361 82.5612 234.893 81.1809 235.189C79.8006 235.485 78.4006 235.603 77.0597 236.016C74.6146 236.765 72.5245 238.499 71.1442 240.647C69.7639 242.794 69.0343 245.336 68.8371 247.877C68.7188 249.276 69.5273 250.104 70.809 250.458C74.6344 251.562 78.578 252.192 82.5415 252.488C85.9725 252.744 89.5612 252.173 92.9922 251.779C98.6909 251.128 104.389 250.183 110.068 249.079C110.068 249.079 107.466 235.839 107.466 235.819L107.426 235.859Z" fill="#FBC0A4"/>
    <path d="M161.849 231.8C163.131 233.002 164.629 233.987 166.266 234.677C169.973 236.253 174.074 236.292 177.821 234.795C181.567 233.298 184.486 230.421 186.063 226.717C188.548 220.924 187.108 214.127 182.514 209.812C181.232 208.61 179.734 207.625 178.097 206.936C174.39 205.359 170.289 205.32 166.542 206.817C162.796 208.315 159.877 211.191 158.3 214.895C155.835 220.688 157.255 227.485 161.849 231.8Z" fill="#3E3533"/>
    <path d="M111.33 250.32L104.646 251.581L102.457 232.923L109.201 232.726L111.33 250.32Z" fill="white"/>
    <path d="M110.837 252.566C122.452 251.68 174.311 235.819 176.677 235.208L179.675 233.908L169.46 205.832L167.567 206.463C167.213 206.581 158.714 209.418 144.793 216.353C141.263 218.107 105.711 230.007 105.711 230.007L109.063 252.763L110.857 252.566H110.837Z" fill="black"/>
    <path d="M213.61 121.269H64.5778C60.6029 121.269 57.3806 124.489 57.3806 128.46V222.993C57.3806 226.965 60.6029 230.185 64.5778 230.185H213.61C217.585 230.185 220.807 226.965 220.807 222.993V128.46C220.807 124.489 217.585 121.269 213.61 121.269Z" fill="#F8E8D8"/>
    <path d="M175.948 247.602H93.426V252.074H175.948V247.602Z" fill="#F8E8D8"/>
    <path d="M198.111 247.602H175.948V252.074H198.111V247.602Z" fill="white"/>
    <path d="M142.683 252.074L153.074 191.469H126.454L116.063 252.074H142.683Z" fill="#F8E8D8"/>
    <path d="M24.8649 281.333L10.9634 457H15.6169L45.3523 281.333H24.8649Z" fill="#444444"/>
    <path d="M298.379 258.674H8.41968V287.066H298.379V258.674Z" fill="#2B2B2B"/>
    <path d="M314.825 281.333L300.923 457H305.577L335.312 281.333H314.825Z" fill="#444444"/>
    <path d="M385.732 281.333L399.634 457H394.98L365.264 281.333H385.732Z" fill="#444444"/>
    <path d="M409 252.074H0V258.675H409V252.074Z" fill="white"/>
    <path d="M298.379 287.066H400.58V258.675H298.379V287.066Z" fill="#444444"/>
  </g>
  <defs>
    <clipPath id="clip0_215_1246">
      <rect width="409" height="457" fill="white"/>
    </clipPath>
  </defs>
</svg>
