<svg width="197" height="39" viewBox="0 0 197 39" fill="none" xmlns="http://www.w3.org/2000/svg">
  <rect x="80" width="117" height="39" fill="#E73245"/>
  <path d="M2.31 30V9H9.99C11.44 9 12.705 9.23 13.785 9.69C14.875 10.15 15.72 10.85 16.32 11.79C16.92 12.73 17.22 13.92 17.22 15.36C17.22 16.9 16.89 18.125 16.23 19.035C15.58 19.935 14.72 20.65 13.65 21.18L18.39 30H14.1L10.05 22.2C10.02 22.2 9.995 22.2 9.975 22.2C9.955 22.2 9.93 22.2 9.9 22.2H6.15V30H2.31ZM6.15 18.99H8.97C10.55 18.99 11.65 18.67 12.27 18.03C12.89 17.38 13.2 16.56 13.2 15.57C13.2 14.52 12.895 13.7 12.285 13.11C11.675 12.51 10.62 12.21 9.12 12.21H6.15V18.99ZM30.4193 30.42C28.1993 30.42 26.2993 29.97 24.7193 29.07C23.1393 28.16 21.9293 26.885 21.0893 25.245C20.2493 23.605 19.8293 21.68 19.8293 19.47C19.8293 17.28 20.2943 15.37 21.2243 13.74C22.1643 12.1 23.4593 10.83 25.1093 9.93C26.7593 9.03 28.6593 8.58 30.8093 8.58C31.9193 8.58 32.9793 8.695 33.9893 8.925C35.0093 9.155 35.8793 9.45 36.5993 9.81L36.1793 13.47C35.4293 13.12 34.5993 12.835 33.6893 12.615C32.7893 12.385 31.8293 12.27 30.8093 12.27C29.2493 12.27 27.9693 12.585 26.9693 13.215C25.9693 13.835 25.2293 14.685 24.7493 15.765C24.2693 16.835 24.0293 18.05 24.0293 19.41C24.0293 20.84 24.2693 22.105 24.7493 23.205C25.2393 24.305 25.9693 25.17 26.9393 25.8C27.9093 26.42 29.1193 26.73 30.5693 26.73C31.0093 26.73 31.4693 26.7 31.9493 26.64C32.4393 26.58 32.9393 26.5 33.4493 26.4V22.65H30.5693V19.47H37.2893V28.83C36.5593 29.26 35.5893 29.635 34.3793 29.955C33.1793 30.265 31.8593 30.42 30.4193 30.42ZM41.0112 30V9H48.4812C50.0912 9 51.4512 9.24 52.5612 9.72C53.6712 10.2 54.5112 10.94 55.0812 11.94C55.6612 12.94 55.9512 14.22 55.9512 15.78C55.9512 17.36 55.6662 18.665 55.0962 19.695C54.5262 20.715 53.6912 21.475 52.5912 21.975C51.4912 22.465 50.1512 22.71 48.5712 22.71H44.8512V30H41.0112ZM44.8512 19.5H48.1212C49.4312 19.5 50.4112 19.205 51.0612 18.615C51.7212 18.025 52.0512 17.1 52.0512 15.84C52.0512 14.58 51.7162 13.66 51.0462 13.08C50.3862 12.5 49.3812 12.21 48.0312 12.21H44.8512V19.5ZM58.8823 30V9H66.7423C68.7423 9 70.5223 9.42 72.0823 10.26C73.6423 11.09 74.8673 12.29 75.7573 13.86C76.6473 15.42 77.0923 17.3 77.0923 19.5C77.0923 21.7 76.6473 23.585 75.7573 25.155C74.8673 26.715 73.6423 27.915 72.0823 28.755C70.5223 29.585 68.7423 30 66.7423 30H58.8823ZM62.7223 26.58H66.7423C68.1023 26.58 69.2373 26.295 70.1473 25.725C71.0573 25.155 71.7423 24.34 72.2023 23.28C72.6623 22.22 72.8923 20.96 72.8923 19.5C72.8923 18.04 72.6623 16.78 72.2023 15.72C71.7423 14.66 71.0573 13.845 70.1473 13.275C69.2373 12.705 68.1023 12.42 66.7423 12.42H62.7223V26.58Z" fill="#181818"/>
  <path d="M91.4723 30V11.58H85.3523V9H100.442V11.58H94.3223V30H91.4723ZM111.758 30.42C109.788 30.42 108.158 30.045 106.868 29.295C105.588 28.535 104.633 27.46 104.003 26.07C103.373 24.67 103.058 23.01 103.058 21.09V9H105.908V20.31C105.908 21.27 105.983 22.2 106.133 23.1C106.283 24 106.558 24.805 106.958 25.515C107.368 26.225 107.958 26.79 108.728 27.21C109.508 27.63 110.518 27.84 111.758 27.84C113.008 27.84 114.018 27.63 114.788 27.21C115.558 26.79 116.143 26.225 116.543 25.515C116.953 24.795 117.233 23.985 117.383 23.085C117.533 22.185 117.608 21.26 117.608 20.31V9H120.458V21.09C120.458 23.01 120.143 24.67 119.513 26.07C118.883 27.46 117.923 28.535 116.633 29.295C115.353 30.045 113.728 30.42 111.758 30.42ZM125.007 30V9H128.097L138.447 24.72V9H141.327V30H138.897L127.857 13.41V30H125.007ZM146.13 30V9H148.98V30H146.13ZM159.777 30.42C158.907 30.42 158.037 30.355 157.167 30.225C156.297 30.095 155.492 29.93 154.752 29.73C154.012 29.52 153.397 29.3 152.907 29.07L153.297 26.04C153.837 26.3 154.487 26.57 155.247 26.85C156.017 27.13 156.847 27.365 157.737 27.555C158.627 27.745 159.527 27.84 160.437 27.84C161.787 27.84 162.857 27.595 163.647 27.105C164.447 26.605 164.847 25.83 164.847 24.78C164.847 23.99 164.647 23.345 164.247 22.845C163.847 22.335 163.242 21.9 162.432 21.54C161.632 21.18 160.627 20.82 159.417 20.46C158.267 20.12 157.207 19.72 156.237 19.26C155.267 18.79 154.487 18.165 153.897 17.385C153.317 16.595 153.027 15.55 153.027 14.25C153.027 13.14 153.312 12.16 153.882 11.31C154.462 10.45 155.307 9.78 156.417 9.3C157.537 8.82 158.907 8.58 160.527 8.58C161.907 8.58 163.172 8.73 164.322 9.03C165.482 9.33 166.437 9.66 167.187 10.02L166.887 13.05C165.747 12.37 164.657 11.885 163.617 11.595C162.587 11.305 161.517 11.16 160.407 11.16C159.177 11.16 158.157 11.39 157.347 11.85C156.547 12.31 156.147 13.06 156.147 14.1C156.147 14.8 156.327 15.375 156.687 15.825C157.047 16.265 157.582 16.645 158.292 16.965C159.002 17.275 159.887 17.59 160.947 17.91C162.407 18.35 163.662 18.855 164.712 19.425C165.762 19.985 166.567 20.68 167.127 21.51C167.687 22.33 167.967 23.35 167.967 24.57C167.967 25.47 167.797 26.28 167.457 27C167.117 27.72 166.607 28.335 165.927 28.845C165.247 29.355 164.392 29.745 163.362 30.015C162.342 30.285 161.147 30.42 159.777 30.42ZM171.296 30V9H174.146V30H171.296ZM178.943 30V9H191.753V11.58H181.793V17.73H189.713V20.31H181.793V27.42H192.023V30H178.943Z" fill="white"/>
</svg>
